<svg width="512" height="512" viewBox="0 0 512 512" fill="none" xmlns="http://www.w3.org/2000/svg">
<path d="M86.512 90.112L112.648 386.336C113.784 399.2 122.544 410.128 134.856 414.032L229.128 443.904C246.608 449.44 265.376 449.44 282.856 443.904L377.128 414.032C389.44 410.128 398.2 399.208 399.336 386.336L425.472 90.112C426.72 76.08 415.664 64 401.576 64H110.424C96.336 64 85.28 76.08 86.512 90.112Z" fill="#007AD9"/>
<path opacity="0.15" d="M377.136 414.024C389.448 410.12 398.208 399.2 399.344 386.328L410.816 256.288C388.904 254.304 369.4 270.608 367.456 292.616L360.432 372.184C360.152 375.4 357.96 378.128 354.88 379.104L293.248 398.632C273.496 404.888 260.528 424.872 264.728 445.16C264.896 445.968 265.216 446.688 265.424 447.472C271.312 446.848 277.16 445.688 282.864 443.88L377.136 414.024Z" fill="black"/>
<path opacity="0.3" d="M86.512 90.112L103.968 287.96C110.888 287.328 118.056 284.624 125.496 276.784C136.032 265.68 140.792 250.264 139.448 235.016L128.656 112.712C128.248 108.024 131.936 104 136.632 104H184C206.088 104 223.976 86.088 223.976 64H110.424C96.336 64 85.272 76.08 86.512 90.112Z" fill="white"/>
<rect x="111" y="87" width="35" height="35" fill="#007AD9"/>
<path d="M118.856 138.048L114.792 92H152.536" stroke="white" stroke-width="24" stroke-miterlimit="10" stroke-linecap="round" stroke-linejoin="round"/>
<path d="M256 120V386.672C256 397.336 266.24 405.016 276.48 402.032L350.112 380.576C356.456 378.728 361.016 373.16 361.576 366.576L382.52 121.36C383.32 112.024 375.952 104 366.576 104H272C263.16 104 256 111.16 256 120Z" fill="#35C1F1"/>
<path d="M348 144H256V184.543H305.538L302.506 225.086H256V265.629H300.484L297.451 311.24L256 325.43V368L335.868 341.647L342.945 225.086L348 144Z" fill="white"/>
<path opacity="0.3" d="M256 512C344.366 512 416 501.255 416 488C416 474.745 344.366 464 256 464C167.634 464 96 474.745 96 488C96 501.255 167.634 512 256 512Z" fill="black"/>
<path d="M256 144V184.543H165.065L162 144H256ZM209 225.086L211.043 265.629H256V225.086H209ZM213.087 285.9H172.217L175.283 341.647L256 368V325.43L214.109 311.24L213.087 285.9Z" fill="#D6E0E9"/>
</svg>
