<svg width="512" height="512" viewBox="0 0 512 512" fill="none" xmlns="http://www.w3.org/2000/svg">
<path opacity="0.3" d="M256 512C344.366 512 416 501.255 416 488C416 474.745 344.366 464 256 464C167.634 464 96 474.745 96 488C96 501.255 167.634 512 256 512Z" fill="black"/>
<path d="M168.666 442.188C159.042 442.188 150.278 439.983 142.611 435.64C129.786 428.367 120.921 415.834 116.253 398.403C110.824 378.113 111.471 351.164 118.12 320.339C64.5025 301.894 33.8125 273.595 33.8125 242.483C33.8125 211.366 64.4969 183.072 118.114 164.633C111.466 133.803 110.813 106.853 116.241 86.5638C120.91 69.1263 129.775 56.5938 142.594 49.3263C150.256 44.9838 159.025 42.7788 168.649 42.7788C193.332 42.7788 224.286 58.135 256.011 86.08C287.736 58.1631 318.679 42.8181 343.334 42.8181C352.958 42.8181 361.722 45.0231 369.389 49.3656C382.197 56.6275 391.068 69.1375 395.736 86.5525C401.17 106.836 400.518 133.791 393.863 164.628C447.492 183.066 478.188 211.366 478.188 242.483C478.188 273.601 447.492 301.9 393.863 320.344C400.512 351.175 401.164 378.124 395.731 398.408C391.062 415.829 382.202 428.339 369.406 435.601C361.733 439.943 352.964 442.148 343.345 442.148C318.674 442.148 287.719 426.803 256.006 398.898C224.281 426.837 193.332 442.188 168.666 442.188ZM139.771 326.892C134.196 353.425 133.572 376.094 137.993 392.586C141.042 403.983 146.324 411.886 153.709 416.071C157.945 418.473 162.979 419.693 168.666 419.693C187.758 419.693 212.89 406.857 239.659 383.485C226.244 369.974 213.149 354.679 200.689 337.973C179.14 335.633 158.665 331.909 139.771 326.892ZM272.346 383.474C299.11 406.823 324.248 419.648 343.339 419.654C349.026 419.654 354.061 418.433 358.307 416.031C365.671 411.858 370.941 403.971 373.984 392.592C378.406 376.088 377.787 353.425 372.212 326.898C353.301 331.915 332.821 335.639 311.277 337.979C298.823 354.685 285.745 369.974 272.346 383.474ZM231.059 340.319C239.226 350.309 247.585 359.629 256 368.106C264.392 359.635 272.757 350.314 280.919 340.319C272.532 340.718 264.179 340.921 256 340.921C247.816 340.921 239.457 340.718 231.059 340.319ZM212.963 316.615C226.997 317.813 241.471 318.421 256 318.421C270.541 318.421 284.997 317.813 299.009 316.621C307.367 304.898 315.338 292.613 322.713 280.086C329.845 267.964 336.556 255.314 342.664 242.478C336.573 229.675 329.868 217.03 322.718 204.88C315.361 192.381 307.39 180.096 299.009 168.346C285.008 167.153 270.552 166.546 256 166.546C241.442 166.546 226.981 167.153 212.986 168.351C204.604 180.085 196.623 192.37 189.254 204.886C182.11 217.03 175.405 229.675 169.307 242.494C175.394 255.286 182.099 267.931 189.248 280.092C196.583 292.551 204.554 304.831 212.963 316.615ZM354.387 269.365C350.416 276.936 346.298 284.361 342.096 291.494C337.861 298.705 333.355 305.939 328.675 313.071C342.029 311.013 354.803 308.374 366.762 305.196C363.443 293.671 359.286 281.65 354.387 269.365ZM145.21 305.191C157.174 308.363 169.943 311.007 183.28 313.066C178.572 305.888 174.066 298.649 169.859 291.494C165.668 284.367 161.545 276.953 157.579 269.382C152.703 281.611 148.551 293.62 145.21 305.191ZM367.465 242.483C376.06 261.558 383.063 280.413 388.322 298.604C429.959 283.956 455.688 262.587 455.688 242.483C455.688 222.379 429.959 201.01 388.322 186.363C383.074 204.554 376.066 223.409 367.465 242.483ZM123.655 186.374C82.0356 201.016 56.3125 222.385 56.3125 242.483C56.3125 262.587 82.0356 283.956 123.666 298.598C128.92 280.401 135.923 261.546 144.507 242.494C135.918 223.437 128.914 204.582 123.655 186.374ZM145.204 179.776C148.546 191.329 152.697 203.344 157.579 215.596C161.539 208.047 165.657 200.628 169.864 193.478C174.094 186.284 178.6 179.05 183.297 171.901C169.943 173.954 157.174 176.598 145.204 179.776ZM328.686 171.895C333.394 179.078 337.9 186.312 342.107 193.478C346.304 200.605 350.427 208.024 354.398 215.596C359.286 203.35 363.438 191.335 366.779 179.77C354.798 176.592 342.029 173.948 328.686 171.895ZM168.649 65.2788C162.963 65.2788 157.934 66.4938 153.704 68.9013C146.324 73.0863 141.036 80.9894 137.982 92.3856C133.566 108.895 134.185 131.558 139.765 158.08C158.665 153.063 179.151 149.333 200.706 146.993C213.177 130.281 226.272 114.998 239.671 101.498C212.896 78.115 187.746 65.2788 168.649 65.2788ZM311.282 146.988C332.826 149.328 353.307 153.051 372.218 158.069C377.798 131.541 378.423 108.873 373.996 92.3688C370.947 80.995 365.671 73.1088 358.302 68.935C354.061 66.5331 349.026 65.3125 343.334 65.3125C324.248 65.3125 299.121 78.1431 272.352 101.498C285.739 114.993 298.823 130.281 311.282 146.988ZM256 144.046C264.179 144.046 272.532 144.248 280.924 144.648C272.768 134.669 264.409 125.354 256.011 116.871C247.591 125.365 239.237 134.68 231.081 144.648C239.468 144.248 247.821 144.046 256 144.046Z" fill="#8BB7F0"/>
<path d="M168.649 45.5913C193.928 45.5913 224.877 61.96 256.017 89.8431C287.151 61.9825 318.083 45.6306 343.339 45.6306C352.469 45.6306 360.771 47.7119 368.011 51.8125C380.138 58.6863 388.553 70.6169 393.019 87.2838C399.078 109.317 397.806 136.446 390.578 166.484C442.452 183.814 475.375 211.158 475.375 242.483C475.375 273.809 442.452 301.152 390.572 318.488C398.116 350.961 399.381 378.822 393.014 397.683C388.548 414.344 380.138 426.28 368.022 433.154C360.771 437.26 354.184 439.358 345.061 439.358C345.055 439.358 342.721 439.358 342.715 439.358C317.448 439.358 287.129 422.989 256 395.14C224.866 423.018 193.928 439.375 168.661 439.375C159.531 439.375 151.229 437.294 143.989 433.193C131.851 426.303 123.43 414.355 118.969 397.677C112.276 376.769 113.626 349.285 121.411 318.483C69.5425 301.146 36.625 273.809 36.625 242.483C36.625 211.163 69.5425 183.82 121.405 166.484C117.541 149.277 115.071 133.302 114.987 118.733C114.919 107.224 116.489 96.52 118.964 87.2894C123.43 70.6056 131.845 58.6581 143.984 51.7731C151.218 47.6669 159.52 45.5913 168.649 45.5913ZM137.639 161.562C157.197 156.19 178.915 152.129 202.231 149.654C215.629 131.597 229.652 115.364 243.777 101.369C216.372 76.9225 189.687 62.4606 168.649 62.4606C162.468 62.4606 156.977 63.7994 152.314 66.4488C144.254 71.0219 138.522 79.4988 135.265 91.6544C130.439 109.666 131.536 134.011 137.639 161.562ZM374.344 161.556C380.448 134.005 381.544 109.654 376.718 91.6431C373.467 79.51 367.735 71.05 359.691 66.4881C355.022 63.8388 349.516 62.5 343.339 62.5C322.319 62.5 295.651 76.945 268.251 101.369C282.37 115.364 296.376 131.597 309.764 149.648C333.068 152.123 354.786 156.184 374.344 161.556ZM224.933 147.792C235.069 147.19 245.234 146.667 255.803 146.667C266.373 146.667 276.925 147.196 287.061 147.792C276.891 134.973 266.451 123.261 256.006 112.894C245.56 123.261 235.114 134.973 224.933 147.792ZM256 321.233C271.531 321.233 286.397 320.553 300.539 319.309C309.083 307.401 317.346 294.756 325.131 281.515C332.742 268.583 339.627 255.494 345.775 242.483C339.627 229.473 332.742 216.389 325.137 203.462C317.346 190.216 309.089 177.576 300.539 165.668C286.403 164.414 271.536 163.733 256 163.733C240.464 163.733 225.591 164.414 211.45 165.663C202.894 177.571 194.626 190.216 186.835 203.457C179.23 216.389 172.345 229.478 166.197 242.489C172.345 255.499 179.224 268.583 186.829 281.509C194.62 294.751 202.883 307.396 211.433 319.304C225.58 320.553 240.458 321.233 256 321.233ZM354.696 222.306C361.024 207.068 366.261 192.106 370.255 177.796C355.894 173.847 340.032 170.584 322.847 168.194C328.63 176.783 334.261 185.688 339.677 194.901C345.044 204.008 350.033 213.166 354.696 222.306ZM157.276 222.312C161.933 213.171 166.928 204.014 172.283 194.901C177.706 185.688 183.342 176.789 189.13 168.199C171.946 170.584 156.083 173.852 141.723 177.801C145.716 192.111 150.953 207.068 157.276 222.312ZM386.432 302.232C431.86 286.842 458.5 264.229 458.5 242.483C458.5 220.737 431.86 198.124 386.432 182.734C381.072 201.887 373.669 222.014 364.383 242.478C373.669 262.947 381.072 283.073 386.432 302.232ZM125.556 302.226C130.911 283.079 138.308 262.953 147.595 242.494C138.308 222.031 130.906 201.899 125.551 182.746C80.1288 198.136 53.5 220.743 53.5 242.483C53.5 264.229 80.1344 286.836 125.556 302.226ZM322.847 316.773C340.032 314.388 355.894 311.125 370.255 307.171C366.256 292.861 361.019 277.898 354.696 262.654C350.033 271.795 345.038 280.953 339.677 290.065C334.261 299.279 328.63 308.183 322.847 316.773ZM189.113 316.767C183.331 308.178 177.7 299.279 172.277 290.071C166.922 280.964 161.933 271.812 157.276 262.677C150.953 277.909 145.722 292.866 141.728 307.171C156.083 311.114 171.94 314.376 189.113 316.767ZM168.666 422.5C189.698 422.5 216.372 408.044 243.771 383.609C229.636 369.608 215.618 353.369 202.214 335.307C178.909 332.838 157.202 328.776 137.65 323.404C131.552 350.956 130.456 375.301 135.276 393.312C138.528 405.462 144.265 413.939 152.32 418.512C156.978 421.161 162.484 422.5 168.666 422.5ZM343.339 422.466C349.521 422.466 355.017 421.128 359.691 418.478C367.735 413.916 373.456 405.456 376.701 393.318C381.528 375.301 380.431 350.956 374.333 323.41C354.775 328.782 333.062 332.843 309.752 335.312C296.365 353.369 282.353 369.602 268.234 383.603C295.634 408.016 322.308 422.461 343.339 422.466ZM256 372.083C266.446 361.711 276.886 349.994 287.061 337.174C276.931 337.776 267.042 339.048 256.467 339.048C245.886 339.048 235.052 337.776 224.916 337.174C235.097 349.999 245.549 361.716 256 372.083ZM166.652 40.3881C156.533 40.3881 149.299 42.2894 141.211 46.8738C127.716 54.5294 118.401 67.6356 113.53 85.8325C108.13 106.009 108.597 132.531 114.857 162.788C61.4819 181.671 31 210.561 31 242.483C31 274.411 61.4875 303.295 114.863 322.178C108.603 352.435 108.136 378.957 113.541 399.134C118.407 417.319 127.716 430.426 141.222 438.093C149.322 442.683 159.053 444.634 169.167 444.634C194.406 444.634 224.027 430.375 256.006 402.638C287.978 430.347 318.1 444.961 343.334 444.966C353.453 444.966 362.689 442.643 370.789 438.053C384.273 430.409 393.576 417.319 398.442 399.145C403.847 378.962 403.381 352.441 397.12 322.189C450.507 303.301 481 274.411 481 242.483C481 210.556 450.512 181.666 397.126 162.782C403.392 132.52 403.853 105.998 398.447 85.8212C393.576 67.6469 384.267 54.5575 370.778 46.9131C362.684 42.3288 353.448 40 343.334 40C318.106 40 287.989 54.6194 256.011 82.3394C224.027 54.5969 193.765 40.3712 168.52 40.3712L166.652 40.3881ZM141.925 154.604C139.326 141.531 137.582 129.28 137.487 118.536C137.402 108.861 138.73 100.441 140.693 93.1056C143.545 82.4631 148.388 75.1394 155.087 71.3369C158.89 69.1769 163.525 67.7144 168.717 67.7144C186.61 67.7144 210.156 79.9656 235.559 101.656C223.066 114.441 210.854 128.762 199.187 144.321C179.022 146.571 159.796 150.019 141.925 154.604ZM276.464 101.667C301.861 79.9937 325.463 68.125 343.334 68.125C348.531 68.125 353.104 69.2219 356.912 71.3819C363.601 75.1731 368.438 82.48 371.284 93.1C376.201 108.951 375.565 130.022 370.058 154.598C352.188 150.019 332.967 146.566 312.807 144.327C301.146 128.774 288.946 114.452 276.464 101.667ZM237.286 141.571C243.451 134.258 249.711 127.339 256.006 120.882C262.3 127.339 268.555 134.258 274.714 141.571C268.42 141.346 262.159 141.233 256 141.233C249.841 141.233 243.586 141.346 237.286 141.571ZM214.516 171.046C228.044 169.926 241.982 169.127 256 169.127C270.012 169.127 283.951 169.926 297.473 171.046C305.528 182.402 313.201 194.254 320.288 206.309C327.162 217.998 333.636 230.153 339.543 242.478C333.631 254.808 327.156 266.969 320.283 278.658C313.189 290.718 305.523 302.564 297.468 313.921C283.951 315.04 270.012 316.542 256 316.542C241.977 316.542 228.033 315.034 214.499 313.915C206.438 302.564 198.766 290.712 191.672 278.652C184.799 266.969 178.33 254.813 172.424 242.483C178.33 230.153 184.804 217.992 191.678 206.303C198.777 194.249 206.455 182.397 214.516 171.046ZM353.999 208.868C350.911 203.142 347.744 197.517 344.532 192.049C341.326 186.599 337.967 181.126 334.491 175.686C344.47 177.385 354.094 179.416 363.258 181.761C360.631 190.57 357.531 199.637 353.999 208.868ZM148.72 181.761C157.883 179.416 167.507 177.385 177.486 175.686C174.004 181.126 170.646 186.599 167.44 192.044C164.228 197.511 161.061 203.136 157.973 208.862C154.441 199.643 151.347 190.576 148.72 181.761ZM370.553 242.478C378.513 224.691 385.105 207.085 390.184 190.019C429.014 204.188 452.875 224.039 452.875 242.483C452.875 260.928 429.014 280.778 390.184 294.948C385.099 277.876 378.513 260.264 370.553 242.478ZM121.799 294.942C82.9806 280.773 59.125 260.922 59.125 242.483C59.125 224.044 82.9806 204.194 121.793 190.024C126.873 207.096 133.459 224.703 141.419 242.489C133.465 260.269 126.878 277.876 121.799 294.942ZM334.486 309.286C337.962 303.841 341.326 298.368 344.526 292.923C347.744 287.455 350.911 281.824 353.999 276.098C357.531 285.329 360.625 294.402 363.258 303.216C354.089 305.551 344.464 307.587 334.486 309.286ZM148.726 303.205C151.353 294.396 154.446 285.334 157.973 276.115C161.056 281.836 164.222 287.461 167.434 292.923C170.635 298.368 173.993 303.835 177.475 309.28C167.502 307.576 157.883 305.545 148.726 303.205ZM168.666 416.875C163.469 416.875 158.901 415.778 155.093 413.618C148.399 409.816 143.556 402.498 140.71 391.855C136.036 375.852 136.564 354.775 141.936 330.357C159.801 334.936 179.016 338.389 199.171 340.628C210.842 356.187 223.054 370.514 235.553 383.311C210.156 405.006 186.548 416.881 168.666 416.875ZM312.801 340.639C332.961 338.395 352.182 334.947 370.053 330.368C376.268 357.031 376.758 378.282 371.273 391.861C368.433 402.486 363.601 409.793 356.918 413.579C353.104 415.739 348.537 416.836 343.345 416.836C325.457 416.836 301.844 404.967 276.453 383.305C288.94 370.519 301.141 356.198 312.801 340.639ZM256 364.096C249.7 357.638 243.434 350.714 237.269 343.396C243.569 343.621 249.835 343.733 256 343.733C262.159 343.733 268.42 343.621 274.714 343.396C268.555 350.714 262.294 357.638 256 364.096Z" fill="#4E7AB5"/>
<path d="M295 242C295 263.558 277.558 281 256 281C234.442 281 217 263.558 217 242C217 220.442 234.442 203 256 203C277.558 203 295 220.442 295 242Z" fill="#8BB7F0"/>
<path d="M256 284C232.846 284 214 265.16 214 242C214 218.84 232.846 200 256 200C279.154 200 298 218.84 298 242C298 265.16 279.154 284 256 284ZM256 206C236.146 206 220 222.146 220 242C220 261.854 236.146 278 256 278C275.854 278 292 261.854 292 242C292 222.146 275.854 206 256 206Z" fill="#4E7AB5"/>
</svg>
