<svg width="512" height="512" viewBox="0 0 512 512" fill="none" xmlns="http://www.w3.org/2000/svg">
<path opacity="0.3" d="M256 512C344.366 512 416 501.255 416 488C416 474.745 344.366 464 256 464C167.634 464 96 474.745 96 488C96 501.255 167.634 512 256 512Z" fill="black"/>
<path d="M346.667 193.671C318.433 173.062 239.292 106.929 239.292 106.929C230.5 99.4956 217.358 100.596 209.933 109.379C202.492 118.162 203.592 131.304 212.375 138.737L257.592 177.004H100.833C89.3251 177.004 80.0001 186.329 80.0001 197.837C80.0001 209.346 89.3251 218.671 100.833 218.671H174.058L38.1501 322.979C29.0251 329.987 27.3001 343.062 34.3084 352.187C38.4084 357.537 44.5917 360.337 50.8501 360.337C55.2751 360.337 59.7334 358.937 63.5251 356.029L146.825 292.096C146.8 293.062 146.667 293.987 146.667 294.954C146.667 360.096 201.1 410.337 271.667 410.337C342.233 410.337 402.225 360.096 402.225 294.954C402.225 254.296 378.967 217.254 346.667 193.671Z" fill="url(#paint0_linear_8_255)"/>
<path d="M275.833 360.337C320.707 360.337 357.083 326.759 357.083 285.337C357.083 243.916 320.707 210.337 275.833 210.337C230.96 210.337 194.583 243.916 194.583 285.337C194.583 326.759 230.96 360.337 275.833 360.337Z" fill="white"/>
<path opacity="0.07" d="M275.833 210.337C320.708 210.337 357.083 243.912 357.083 285.337C357.083 326.762 320.708 360.337 275.833 360.337C230.958 360.337 194.583 326.762 194.583 285.337C194.583 243.912 230.958 210.337 275.833 210.337ZM275.833 206.171C228.733 206.171 190.417 241.687 190.417 285.337C190.417 328.987 228.733 364.504 275.833 364.504C322.933 364.504 361.25 328.987 361.25 285.337C361.25 241.687 322.933 206.171 275.833 206.171Z" fill="black"/>
<path opacity="0.05" d="M275.833 206.171C322.933 206.171 361.25 241.687 361.25 285.337C361.25 328.987 322.933 364.504 275.833 364.504C228.733 364.504 190.417 328.987 190.417 285.337C190.417 241.687 228.733 206.171 275.833 206.171ZM275.833 202.004C226.433 202.004 186.25 239.387 186.25 285.337C186.25 331.287 226.433 368.671 275.833 368.671C325.233 368.671 365.417 331.287 365.417 285.337C365.417 239.387 325.233 202.004 275.833 202.004Z" fill="black"/>
<path d="M275.833 327.004C301.147 327.004 321.667 308.349 321.667 285.337C321.667 262.325 301.147 243.67 275.833 243.67C250.52 243.67 230 262.325 230 285.337C230 308.349 250.52 327.004 275.833 327.004Z" fill="#0370C8"/>
<defs>
<linearGradient id="paint0_linear_8_255" x1="30.0001" y1="256.171" x2="402.225" y2="256.171" gradientUnits="userSpaceOnUse">
<stop stop-color="#FFA402"/>
<stop offset="1" stop-color="#FF8800"/>
</linearGradient>
</defs>
</svg>
