<svg width="512" height="512" viewBox="0 0 512 512" fill="none" xmlns="http://www.w3.org/2000/svg">
<path opacity="0.3" d="M256 512C344.366 512 416 501.255 416 488C416 474.745 344.366 464 256 464C167.634 464 96 474.745 96 488C96 501.255 167.634 512 256 512Z" fill="black"/>
<path d="M100.111 138.655C99.3611 116.988 116.246 97 139.075 97H372.953C395.782 97 412.667 116.988 411.908 138.655C411.186 159.477 412.123 186.441 418.911 208.436C425.296 229.127 435.796 242.674 452.597 245.759C454.528 246.115 456 247.681 456 249.65V263.131C456 265.1 454.528 266.666 452.597 267.022C435.796 270.097 425.296 283.645 418.911 304.346C412.123 326.331 411.186 353.304 411.908 374.126C412.658 395.774 395.773 415.762 372.953 415.762H139.075C116.255 415.762 99.3611 395.774 100.12 374.108C100.842 353.285 99.9048 326.321 93.1171 304.327C86.7324 283.635 76.2039 270.088 59.4033 267.004C57.4719 266.647 56 265.082 56 263.113V249.631C56 247.662 57.4719 246.096 59.4033 245.74C76.2039 242.665 86.7324 229.118 93.1171 208.417C99.8955 186.441 100.842 159.477 100.111 138.655Z" fill="url(#paint0_linear_6_143)"/>
<path d="M279.951 251.264V251.011C296.694 248.12 309.759 232.425 309.759 215.14C309.759 202.923 305.061 192.568 296.17 185.213C287.306 177.876 274.873 174 260.199 174H193V338.152H260.542C278.089 338.152 292.664 333.869 302.675 325.755C312.696 317.632 318 305.813 318 291.573C317.991 270.059 302.721 253.903 279.951 251.264ZM248.479 243.53H219.737V195.478H253.928C272.686 195.478 283.014 203.709 283.014 218.654C283.023 234.693 270.752 243.53 248.479 243.53ZM219.737 263.643H253.702C278.243 263.643 290.676 272.507 290.676 289.991C290.676 307.448 278.415 316.674 255.211 316.674H219.737V263.643Z" fill="white"/>
<path d="M173.569 110L117 166.569" stroke="white" stroke-width="12" stroke-linecap="round"/>
<path d="M180.64 133.284L145.284 168.64" stroke="white" stroke-width="12" stroke-linecap="round"/>
<path d="M141.497 114.284L120.284 135.498" stroke="white" stroke-width="12" stroke-linecap="round"/>
<path d="M335.823 402.978L392.392 346.41" stroke="white" stroke-width="12" stroke-linecap="round"/>
<path d="M329 379.355L364.355 344" stroke="white" stroke-width="12" stroke-linecap="round"/>
<path d="M367.633 398.969L388.846 377.756" stroke="white" stroke-width="12" stroke-linecap="round"/>
<circle cx="85" cy="256" r="10" fill="white"/>
<circle cx="426" cy="256" r="10" fill="white"/>
<defs>
<linearGradient id="paint0_linear_6_143" x1="415" y1="420.5" x2="108" y2="104" gradientUnits="userSpaceOnUse">
<stop stop-color="#643499"/>
<stop offset="0.011" stop-color="#68369F"/>
<stop offset="0.135" stop-color="#773DB6"/>
<stop offset="0.193" stop-color="#8042C3"/>
<stop offset="0.248" stop-color="#8343C8"/>
<stop offset="0.388" stop-color="#8444C9"/>
<stop offset="0.646342" stop-color="#AB48FF"/>
<stop offset="0.997" stop-color="#9C55D4"/>
<stop offset="0.998" stop-color="#9C55D4"/>
<stop offset="1" stop-color="#B051FB"/>
</linearGradient>
</defs>
</svg>
