<svg width="512" height="512" viewBox="0 0 512 512" fill="none" xmlns="http://www.w3.org/2000/svg">
<path opacity="0.3" d="M256 512C344.366 512 416 501.255 416 488C416 474.745 344.366 464 256 464C167.634 464 96 474.745 96 488C96 501.255 167.634 512 256 512Z" fill="black"/>
<path d="M256 339.125C127.727 339.125 31 297.163 31 239C31 180.837 127.727 137.75 256 137.75C384.273 137.75 481 180.837 481 239C481 297.163 384.273 339.125 256 339.125ZM256 170.735C146.549 170.735 63.3438 207.477 63.3438 239.709C63.3438 271.94 146.549 307.265 256 307.265C365.451 307.265 448.656 270.523 448.656 238.291C448.656 206.06 365.451 170.735 256 170.735Z" fill="#4E7AB5"/>
<path d="M170.522 441.5C160.049 441.5 150.486 439.07 142.082 434.278C128.357 426.436 118.514 412.588 113.597 394.205C100.705 346.033 121.506 265.032 166.619 187.835C219.55 97.3287 289.829 36.5338 341.489 36.5338C351.951 36.5338 361.514 38.9638 369.917 43.7563C383.62 51.575 393.475 65.4125 398.391 83.7838C411.295 131.956 390.482 212.968 345.347 290.165C292.461 380.682 222.194 441.5 170.522 441.5ZM341.489 70.2837C308.999 70.2837 246.887 117.455 195.756 204.867C149.372 284.247 135.771 350.094 146.211 385.475C149.035 395.026 153.017 401.653 158.822 404.96C185.384 420.125 257.924 372.897 316.221 273.144C362.627 193.752 377.646 129.313 365.789 92.525C362.74 83.0638 358.994 76.3813 353.2 73.085C349.904 71.195 346.067 70.2837 341.489 70.2837Z" fill="#4E7AB5"/>
<path d="M341.489 441.466C289.772 441.455 219.505 380.66 166.619 290.165C121.506 212.968 100.705 131.956 113.597 83.795C118.514 65.4125 128.357 51.5637 142.071 43.7337C150.486 38.93 160.049 36.5 170.5 36.5C222.194 36.5 292.45 97.3175 345.347 187.835C390.471 265.021 411.272 346.033 398.38 394.216C393.452 412.588 383.609 426.425 369.917 434.244C361.514 439.036 351.94 441.466 341.489 441.466ZM170.5 70.25C165.921 70.25 162.096 71.1725 158.8 73.04C153.006 76.3475 148.967 82.9513 146.2 92.525C135.76 128.615 149.361 193.764 195.745 273.144C246.831 360.545 308.954 407.716 341.477 407.716C346.067 407.716 349.892 406.794 353.189 404.915C358.971 401.63 363.122 395.06 365.766 385.475C375.52 350.083 362.605 284.225 316.21 204.856C265.124 117.433 203.012 70.25 170.5 70.25Z" fill="#4E7AB5"/>
<path d="M295.375 239C295.375 260.769 277.769 278.375 256 278.375C234.231 278.375 216.625 260.769 216.625 239C216.625 217.231 234.231 199.625 256 199.625C277.769 199.625 295.375 217.231 295.375 239Z" fill="#8BB7F0"/>
<path d="M256 284C231.182 284 211 263.818 211 239C211 214.182 231.182 194 256 194C280.818 194 301 214.182 301 239C301 263.818 280.818 284 256 284ZM256 205.25C237.392 205.25 222.25 220.392 222.25 239C222.25 257.608 237.392 272.75 256 272.75C274.608 272.75 289.75 257.608 289.75 239C289.75 220.392 274.608 205.25 256 205.25Z" fill="#4E7AB5"/>
<path d="M256 329.765C136.142 329.765 42.25 289.895 42.25 239C42.25 188.105 136.142 148.235 256 148.235C375.858 148.235 469.75 188.105 469.75 239C469.75 289.895 375.858 329.765 256 329.765ZM256 159.485C146.234 159.485 53.5 195.901 53.5 239C53.5 282.099 146.234 318.515 256 318.515C365.766 318.515 458.5 282.11 458.5 239C458.5 195.89 365.766 159.485 256 159.485Z" fill="#8BB7F0"/>
<path d="M170.523 430.25C162.029 430.25 154.345 428.315 147.651 424.501C136.446 418.1 128.65 406.929 124.454 391.291C112.293 345.875 132.655 268.239 176.316 193.505C226.514 107.713 294.43 47.7838 341.489 47.7838C349.971 47.7838 357.666 49.7188 364.349 53.5325C375.543 59.9225 383.339 71.0825 387.535 86.6975C399.696 132.114 379.334 209.75 335.65 284.495C285.486 370.31 217.593 430.25 170.523 430.25ZM341.489 59.0337C298.919 59.0337 233.545 117.973 186.048 199.186C144.479 270.343 124.094 346.37 135.333 388.389C138.719 401.022 144.738 409.876 153.243 414.736C158.204 417.56 164.009 419 170.511 419C213.093 419 278.455 360.05 325.919 278.814C367.51 207.646 387.906 131.608 376.645 89.6113C373.27 77 367.251 68.1463 358.758 63.3088C353.796 60.4738 347.991 59.0337 341.489 59.0337Z" fill="#8BB7F0"/>
<path d="M341.489 430.216C294.385 430.205 226.469 370.288 176.328 284.495C132.655 209.761 112.304 132.125 124.465 86.7087C128.65 71.0712 136.446 59.9 147.663 53.4987C154.345 49.685 162.029 47.75 170.5 47.75C217.581 47.75 285.486 107.69 335.639 193.505C379.323 268.228 399.674 345.864 387.501 391.302C383.328 406.929 375.531 418.089 364.338 424.468C357.655 428.281 349.971 430.216 341.489 430.216ZM170.5 59C164.009 59 158.193 60.44 153.231 63.2638C144.726 68.1238 138.708 76.9775 135.321 89.6113C124.083 131.619 144.468 207.657 186.036 278.814C233.5 360.016 298.885 418.955 341.489 418.966C347.991 418.966 353.808 417.526 358.769 414.691C367.251 409.854 373.27 401 376.645 388.389C387.895 346.37 367.51 270.331 325.93 199.186C278.455 117.961 213.104 59 170.5 59Z" fill="#8BB7F0"/>
</svg>
