<svg width="512" height="512" viewBox="0 0 512 512" fill="none" xmlns="http://www.w3.org/2000/svg">
<path opacity="0.3" d="M256 512C344.366 512 416 501.255 416 488C416 474.745 344.366 464 256 464C167.634 464 96 474.745 96 488C96 501.255 167.634 512 256 512Z" fill="black"/>
<path d="M337.127 461C336.049 461 334.964 460.75 333.983 460.249L276.465 431.146C274.066 429.93 272.577 427.436 272.654 424.746C272.737 422.057 274.358 419.653 276.834 418.575C313.612 402.544 333.872 376.318 333.872 344.727V164.994C333.872 163.152 334.602 161.38 335.91 160.074C337.217 158.774 338.984 158.045 340.827 158.045L402.052 158.073C405.891 158.073 409 161.186 409 165.022V344.727C409 366.297 403.978 438.422 339.387 460.618C338.657 460.875 337.885 461 337.127 461ZM295.195 425.045L337.593 446.49C390.889 426.164 395.097 363.656 395.097 344.727V171.971L347.789 171.95V344.734C347.782 378.208 329.233 406.331 295.195 425.045ZM213.036 370.689C133.053 370.689 89 330.224 89 256.744C89 186.071 131.773 143.882 203.424 143.882C208.299 143.882 218.21 144.077 226.744 145.446V57.9492C226.744 54.1132 229.853 51 233.699 51H294.917C298.763 51 301.872 54.1132 301.872 57.9492V355.894C301.872 358.986 299.827 361.711 296.85 362.565C273.829 369.23 228.545 370.689 213.036 370.689ZM203.424 157.781C173.197 157.781 102.91 167.426 102.91 256.744C102.91 339.432 162.793 356.791 213.036 356.791C232.148 356.791 267.556 355.053 287.955 350.495V64.8983H240.654V154.32C240.654 156.634 239.499 158.795 237.58 160.088C235.667 161.387 233.219 161.631 231.077 160.762C226.021 158.698 213.543 157.781 203.424 157.781ZM219.358 312.802C183.741 312.802 164.128 292.893 164.128 256.744C164.128 221.546 182.712 203.694 219.358 203.694C223.851 203.694 228.97 204.25 235 205.396C238.282 206.022 240.647 208.885 240.647 212.22V304.262C240.647 307.597 238.268 310.467 234.993 311.086C228.921 312.239 223.809 312.802 219.358 312.802ZM219.358 217.592C190.397 217.592 178.038 229.301 178.038 256.744C178.038 285.117 191.552 298.904 219.358 298.904C221.535 298.904 223.983 298.723 226.744 298.362V218.127C224.004 217.773 221.562 217.592 219.358 217.592ZM402.045 126.065H340.827C336.981 126.065 333.872 122.952 333.872 119.116V57.9492C333.872 54.1132 336.981 51 340.827 51H402.045C405.891 51 409 54.1132 409 57.9492V119.116C409 122.952 405.891 126.065 402.045 126.065ZM347.782 112.166H395.09V64.8983H347.782V112.166Z" fill="url(#paint0_linear_4_57)"/>
<path d="M361.547 79V98.4912H381V79H361.547ZM254.558 79V154.668L254.627 179.937C254.627 179.937 235.105 172.071 203.495 172.071C171.189 172.071 117 183.139 117 257.275C117 278.576 117 343.524 213.082 343.524C229.408 343.524 255.253 342.271 274.011 339.556V79H254.558ZM254.558 322.153C238.134 325.258 229.332 327.304 219.404 327.304C176.122 327.304 150.347 301.13 150.347 257.275C150.347 213.977 174.872 190.17 219.404 190.17C224.754 190.17 230.728 190.796 237.606 192.119L254.558 195.39V322.153ZM361.547 186.271V345.403C361.547 376.172 347.722 403.529 322.503 424.134L337.926 432C377.804 412.509 381 361.344 381 345.403V186.271H361.547Z" fill="url(#paint1_linear_4_57)"/>
<defs>
<linearGradient id="paint0_linear_4_57" x1="249" y1="461" x2="249.243" y2="-338.708" gradientUnits="userSpaceOnUse">
<stop offset="0.146276" stop-color="#203B26"/>
<stop offset="0.836338" stop-color="#04CB6F"/>
</linearGradient>
<linearGradient id="paint1_linear_4_57" x1="249" y1="432" x2="249" y2="79" gradientUnits="userSpaceOnUse">
<stop stop-color="#00542D"/>
<stop offset="1" stop-color="#00B862"/>
</linearGradient>
</defs>
</svg>
