<svg width="512" height="512" viewBox="0 0 512 512" fill="none" xmlns="http://www.w3.org/2000/svg">
<path opacity="0.3" d="M256 512C344.366 512 416 501.255 416 488C416 474.745 344.366 464 256 464C167.634 464 96 474.745 96 488C96 501.255 167.634 512 256 512Z" fill="black"/>
<path d="M225.223 58C222.462 58 220.223 60.2382 220.223 62.9994L220.212 153.114C212.868 151.648 206.017 151.123 197.718 151.123C163.618 151.123 135.102 161.941 115.088 181.524C95.0632 201.117 84 229.045 84 262.388C84 296.889 94.3997 323.892 115.472 342.168C136.417 360.334 167.121 369.184 206.342 369.184C232.584 369.184 256.748 366.676 289.382 360.471C291.741 360.022 293.448 357.96 293.448 355.559V63C293.448 60.2386 291.21 58 288.448 58H225.223ZM220.223 213.986V307.273C213.791 308.05 209.074 308.292 203.516 308.292C188.218 308.292 177.167 303.967 169.906 296.4C162.614 288.801 158.433 277.192 158.433 261.192C158.433 244.769 162.808 232.578 170.311 224.526C177.767 216.526 188.924 211.954 203.89 211.954C203.918 211.954 203.946 211.954 203.974 211.953C209.456 211.862 214.937 212.546 220.223 213.986ZM394 160.58C394 157.819 391.761 155.58 389 155.58H325.835C323.074 155.58 320.835 157.819 320.835 160.58V285.339C320.835 340.414 317.882 360.229 309.474 377.102L309.455 377.14C301.543 393.361 289.126 404.158 261.732 417.089C259.985 417.914 258.869 419.671 258.866 421.603C258.863 423.534 259.973 425.295 261.717 426.125L320.412 454.066C321.804 454.728 323.423 454.712 324.801 454.021C353.32 439.731 367.845 426.367 378.711 405.049C390.396 382.996 394 357.607 394 307.107V160.58ZM325.835 58.3141C323.074 58.3141 320.835 60.5526 320.835 63.3141V128.182C320.835 130.944 323.074 133.182 325.835 133.182H389C391.761 133.182 394 130.944 394 128.182V63.3141C394 60.5526 391.761 58.3141 389 58.3141H325.835Z" fill="#00B862" stroke="#203C26" stroke-width="10" stroke-linejoin="round"/>
</svg>
