<svg width="512" height="512" viewBox="0 0 512 512" fill="none" xmlns="http://www.w3.org/2000/svg">
<path opacity="0.3" d="M256 512C344.366 512 416 501.255 416 488C416 474.745 344.366 464 256 464C167.634 464 96 474.745 96 488C96 501.255 167.634 512 256 512Z" fill="black"/>
<ellipse cx="256" cy="232" rx="80" ry="200" transform="rotate(-90 256 232)" stroke="#12495B" stroke-width="15"/>
<path d="M256 167C309.809 167 357.833 175.751 391.85 189.359C408.901 196.179 421.693 203.925 429.976 211.759C438.228 219.563 441 226.408 441 232C441 237.592 438.228 244.437 429.976 252.241C421.693 260.075 408.901 267.821 391.85 274.641C357.833 288.249 309.809 297 256 297C202.191 297 154.167 288.249 120.15 274.641C103.099 267.821 90.3073 260.075 82.0236 252.241C73.7716 244.437 71 237.592 71 232C71 226.408 73.7716 219.563 82.0236 211.759C90.3073 203.925 103.099 196.179 120.15 189.359C154.167 175.751 202.191 167 256 167Z" stroke="#12495B" stroke-width="30"/>
<ellipse cx="256.247" cy="233.717" rx="80" ry="200" transform="rotate(30 256.247 233.717)" stroke="#12495B" stroke-width="15"/>
<path d="M312.539 266.217C285.635 312.816 254.044 350.03 225.251 372.687C210.819 384.043 197.715 391.248 186.789 394.505C175.904 397.75 168.59 396.727 163.747 393.931C158.904 391.135 154.362 385.312 151.73 374.264C149.087 363.173 148.775 348.222 151.394 330.046C156.618 293.782 173.051 247.816 199.956 201.217C226.86 154.617 258.451 117.403 287.244 94.7459C301.676 83.3897 314.78 76.1848 325.706 72.9279C336.591 69.6835 343.904 70.7057 348.747 73.5018C353.59 76.2979 358.133 82.1208 360.765 93.1692C363.408 104.26 363.72 119.211 361.101 137.387C355.876 173.651 339.443 219.617 312.539 266.217Z" stroke="#12495B" stroke-width="30"/>
<path d="M312.539 199.217C339.443 245.816 355.876 291.782 361.101 328.046C363.72 346.222 363.408 361.173 360.765 372.264C358.133 383.312 353.59 389.135 348.747 391.931C343.905 394.727 336.591 395.75 325.706 392.505C314.78 389.248 301.676 382.043 287.244 370.687C258.451 348.03 226.86 310.816 199.956 264.217C173.051 217.617 156.619 171.651 151.394 135.387C148.775 117.211 149.087 102.26 151.73 91.1692C154.362 80.1208 158.905 74.2979 163.747 71.5018C168.59 68.7057 175.904 67.6835 186.789 70.9279C197.715 74.1848 210.819 81.3897 225.251 92.7459C254.044 115.403 285.635 152.617 312.539 199.217Z" stroke="#12495B" stroke-width="30" stroke-linecap="square"/>
<ellipse cx="256.247" cy="231.717" rx="80" ry="200" transform="rotate(-30 256.247 231.717)" stroke="#12495B" stroke-width="15" stroke-linecap="square"/>
<path d="M256 162C310.282 162 358.965 170.819 393.707 184.716C411.107 191.676 424.516 199.713 433.412 208.126C442.287 216.519 446 224.59 446 232C446 239.41 442.287 247.481 433.412 255.874C424.516 264.287 411.107 272.324 393.707 279.284C358.965 293.181 310.282 302 256 302C201.718 302 153.035 293.181 118.293 279.284C100.893 272.324 87.484 264.287 78.5881 255.874C69.7132 247.481 66 239.41 66 232C66 224.59 69.7132 216.519 78.5881 208.126C87.484 199.713 100.893 191.676 118.293 184.716C153.035 170.819 201.718 162 256 162Z" stroke="#47C6F2" stroke-width="20"/>
<path d="M316.869 268.717C289.728 315.726 257.749 353.477 228.343 376.617C213.616 388.205 199.951 395.799 188.217 399.297C176.511 402.786 167.665 401.966 161.247 398.261C154.83 394.556 149.697 387.305 146.866 375.423C144.028 363.512 143.772 347.881 146.445 329.333C151.781 292.296 168.485 245.726 195.626 198.717C222.767 151.707 254.745 113.956 284.152 90.8165C298.879 79.2282 312.544 71.6339 324.278 68.1363C335.984 64.6469 344.83 65.4667 351.247 69.1717C357.665 72.8767 362.798 80.128 365.629 92.0103C368.467 103.921 368.722 119.552 366.05 138.1C360.714 175.137 344.01 221.707 316.869 268.717Z" stroke="#47C6F2" stroke-width="20"/>
<path d="M316.869 196.717C344.01 243.726 360.714 290.296 366.05 327.333C368.723 345.881 368.467 361.512 365.629 373.423C362.798 385.305 357.665 392.556 351.247 396.261C344.83 399.966 335.984 400.786 324.278 397.297C312.544 393.799 298.879 386.205 284.152 374.617C254.746 351.477 222.767 313.726 195.626 266.717C168.485 219.707 151.781 173.137 146.445 136.1C143.772 117.552 144.028 101.921 146.866 90.0103C149.697 78.128 154.83 70.8767 161.247 67.1717C167.665 63.4667 176.511 62.6469 188.217 66.1363C199.951 69.6339 213.616 77.2282 228.343 88.8165C257.749 111.956 289.728 149.707 316.869 196.717Z" stroke="#47C6F2" stroke-width="20"/>
<circle cx="256" cy="234" r="25" fill="#47C6F2" stroke="#134453" stroke-width="10"/>
</svg>
