<svg width="512" height="512" viewBox="0 0 512 512" fill="none" xmlns="http://www.w3.org/2000/svg">
<path opacity="0.3" d="M256 512C344.366 512 416 501.255 416 488C416 474.745 344.366 464 256 464C167.634 464 96 474.745 96 488C96 501.255 167.634 512 256 512Z" fill="black"/>
<path d="M425.521 229.462C429.071 213.713 424.685 195.151 402.821 175C367.282 207.16 377.442 240.599 389.201 256.692C389.201 256.692 387.694 265.769 352.881 265.769C318.069 265.769 80.4839 265.769 80.4839 265.769C80.4839 265.769 63.8405 411 225.763 411C367.346 411 407.116 302.05 414.879 274.156C418.093 274.592 421.698 274.873 425.521 274.846C445.015 274.692 470.284 264.217 480 225.068C454.231 216.146 437.679 220.185 425.521 229.462Z" fill="#03A9F4"/>
<path d="M82 302C88.6843 345.046 116.722 411 226.007 411C336.821 411 385.366 344.419 405 302H82Z" fill="#0288D1"/>
<path d="M243 410.433C234.631 407.489 196.864 400.467 190.133 347C151.847 364.033 117.927 359.571 103 356.216C122.666 385.738 159.124 411 226.518 411C232.185 411 237.651 410.781 243 410.433Z" fill="#81D4FA"/>
<path d="M226 321C220.961 321 216.128 322.844 212.565 326.126C209.002 329.408 207 333.859 207 338.5C207 343.141 209.002 347.592 212.565 350.874C216.128 354.156 220.961 356 226 356C231.039 356 235.872 354.156 239.435 350.874C242.998 347.592 245 343.141 245 338.5C245 333.859 242.998 329.408 239.435 326.126C235.872 322.844 231.039 321 226 321Z" fill="white"/>
<path d="M197.4 353.015C199.436 357.603 197.582 363.572 192.764 364.989C162.755 373.828 136.891 375 117.336 375C111.482 369.377 106.482 363.381 102.282 357.167C125.782 357.167 163.282 356.077 185.409 348.391C190.155 346.738 195.364 348.41 197.4 353.015ZM80 293.085C80 293.085 97.0455 294.22 107.273 284C124.318 299.335 161.273 293.884 170.909 284C180.573 299.335 233.982 296.491 243.636 284C255 297.064 303.864 299.898 316.364 284C320.718 297.273 378.355 301.024 389.091 284C398.736 293.884 435.118 301.606 455.555 284C460.682 294.792 480 293.085 480 293.085V302.169H80M216.364 338.507C216.364 343.522 220.436 347.592 225.455 347.592C230.473 347.592 234.545 343.522 234.545 338.507C234.545 333.493 230.473 329.423 225.455 329.423C220.436 329.423 216.364 333.493 216.364 338.507Z" fill="#37474F"/>
<path d="M162.4 265H117V220H162.4V265ZM253.2 220H207.8V265H253.2V220ZM344 220H298.6V265H344V220ZM207.8 175H162.4V220H207.8V175ZM298.6 175H253.2V220H298.6V175Z" fill="#01579B"/>
<path d="M207.667 265H162V219.667H207.667V265ZM299 219.667H253.333V265H299V219.667ZM299 129H253.333V174.333H299V129ZM253.333 174.333H207.667V219.667H253.333V174.333Z" fill="#0288D1"/>
</svg>
