<svg width="450" height="450" viewBox="0 0 450 450" fill="none" xmlns="http://www.w3.org/2000/svg">
<path d="M225 325.125C96.7275 325.125 0 283.163 0 225C0 166.837 96.7275 123.75 225 123.75C353.273 123.75 450 166.837 450 225C450 283.163 353.273 325.125 225 325.125ZM225 156.735C115.549 156.735 32.3438 193.477 32.3438 225.709C32.3438 257.94 115.549 293.265 225 293.265C334.451 293.265 417.656 256.523 417.656 224.291C417.656 192.06 334.451 156.735 225 156.735Z" fill="#4E7AB5"/>
<path d="M139.522 427.5C129.049 427.5 119.486 425.07 111.082 420.278C97.3574 412.436 87.5137 398.588 82.5974 380.205C69.7049 332.033 90.5062 251.032 135.619 173.835C188.55 83.3287 258.829 22.5338 310.489 22.5338C320.951 22.5338 330.514 24.9638 338.917 29.7563C352.62 37.575 362.475 51.4125 367.391 69.7838C380.295 117.956 359.482 198.968 314.347 276.165C261.461 366.682 191.194 427.5 139.522 427.5ZM310.489 56.2837C277.999 56.2837 215.887 103.455 164.756 190.867C118.372 270.247 104.771 336.094 115.211 371.475C118.035 381.026 122.017 387.653 127.822 390.96C154.384 406.125 226.924 358.897 285.221 259.144C331.627 179.752 346.646 115.313 334.789 78.525C331.74 69.0638 327.994 62.3813 322.2 59.085C318.904 57.195 315.067 56.2837 310.489 56.2837Z" fill="#4E7AB5"/>
<path d="M310.489 427.466C258.772 427.455 188.505 366.66 135.619 276.165C90.5062 198.968 69.7049 117.956 82.5974 69.795C87.5137 51.4125 97.3574 37.5637 111.071 29.7337C119.486 24.93 129.049 22.5 139.5 22.5C191.194 22.5 261.45 83.3175 314.347 173.835C359.471 251.021 380.272 332.033 367.38 380.216C362.452 398.588 352.609 412.425 338.917 420.244C330.514 425.036 320.94 427.466 310.489 427.466ZM139.5 56.25C134.921 56.25 131.096 57.1725 127.8 59.04C122.006 62.3475 117.967 68.9513 115.2 78.525C104.76 114.615 118.361 179.764 164.745 259.144C215.831 346.545 277.954 393.716 310.477 393.716C315.067 393.716 318.892 392.794 322.189 390.915C327.971 387.63 332.122 381.06 334.766 371.475C344.52 336.083 331.605 270.225 285.21 190.856C234.124 103.433 172.012 56.25 139.5 56.25Z" fill="#4E7AB5"/>
<path d="M264.375 225C264.375 246.769 246.769 264.375 225 264.375C203.231 264.375 185.625 246.769 185.625 225C185.625 203.231 203.231 185.625 225 185.625C246.769 185.625 264.375 203.231 264.375 225Z" fill="#8BB7F0"/>
<path d="M225 270C200.182 270 180 249.818 180 225C180 200.182 200.182 180 225 180C249.818 180 270 200.182 270 225C270 249.818 249.818 270 225 270ZM225 191.25C206.392 191.25 191.25 206.392 191.25 225C191.25 243.608 206.392 258.75 225 258.75C243.608 258.75 258.75 243.608 258.75 225C258.75 206.392 243.608 191.25 225 191.25Z" fill="#4E7AB5"/>
<path d="M225 315.765C105.142 315.765 11.25 275.895 11.25 225C11.25 174.105 105.142 134.235 225 134.235C344.858 134.235 438.75 174.105 438.75 225C438.75 275.895 344.858 315.765 225 315.765ZM225 145.485C115.234 145.485 22.5 181.901 22.5 225C22.5 268.099 115.234 304.515 225 304.515C334.766 304.515 427.5 268.11 427.5 225C427.5 181.89 334.766 145.485 225 145.485Z" fill="#8BB7F0"/>
<path d="M139.523 416.25C131.029 416.25 123.345 414.315 116.651 410.501C105.446 404.1 97.65 392.929 93.4538 377.291C81.2925 331.875 101.655 254.239 145.316 179.505C195.514 93.7125 263.43 33.7838 310.489 33.7838C318.971 33.7838 326.666 35.7188 333.349 39.5325C344.543 45.9225 352.339 57.0825 356.535 72.6975C368.696 118.114 348.334 195.75 304.65 270.495C254.486 356.31 186.593 416.25 139.523 416.25ZM310.489 45.0337C267.919 45.0337 202.545 103.973 155.048 185.186C113.479 256.343 93.0938 332.37 104.333 374.389C107.719 387.022 113.738 395.876 122.243 400.736C127.204 403.56 133.009 405 139.511 405C182.093 405 247.455 346.05 294.919 264.814C336.51 193.646 356.906 117.608 345.645 75.6113C342.27 63 336.251 54.1463 327.758 49.3088C322.796 46.4738 316.991 45.0337 310.489 45.0337Z" fill="#8BB7F0"/>
<path d="M310.489 416.216C263.385 416.205 195.469 356.288 145.328 270.495C101.655 195.761 81.3038 118.125 93.465 72.7087C97.65 57.0712 105.446 45.9 116.663 39.4987C123.345 35.685 131.029 33.75 139.5 33.75C186.581 33.75 254.486 93.69 304.639 179.505C348.323 254.228 368.674 331.864 356.501 377.302C352.328 392.929 344.531 404.089 333.338 410.468C326.655 414.281 318.971 416.216 310.489 416.216ZM139.5 45C133.009 45 127.193 46.44 122.231 49.2638C113.726 54.1238 107.708 62.9775 104.321 75.6113C93.0825 117.619 113.468 193.657 155.036 264.814C202.5 346.016 267.885 404.955 310.489 404.966C316.991 404.966 322.808 403.526 327.769 400.691C336.251 395.854 342.27 387 345.645 374.389C356.895 332.37 336.51 256.331 294.93 185.186C247.455 103.961 182.104 45 139.5 45Z" fill="#8BB7F0"/>
</svg>
