<svg width="512" height="512" viewBox="0 0 512 512" fill="none" xmlns="http://www.w3.org/2000/svg">
<path opacity="0.3" d="M256 512C344.366 512 416 501.255 416 488C416 474.745 344.366 464 256 464C167.634 464 96 474.745 96 488C96 501.255 167.634 512 256 512Z" fill="black"/>
<rect x="81" y="78" width="350" height="350" rx="25" fill="#272727"/>
<path d="M302.5 301C323.763 301 341 283.763 341 262.5C341 241.237 323.763 224 302.5 224C281.237 224 264 241.237 264 262.5C264 283.763 281.237 301 302.5 301Z" fill="url(#paint0_linear_8_222)"/>
<path d="M260 224V145H302.771C323.962 145 341 162.9 341 184.639C341 206.378 323.962 224 302.776 224H260Z" fill="url(#paint1_linear_8_222)"/>
<path d="M263 145V224H219.696C198.248 224 181 206.1 181 184.361C181 162.622 198.248 145 219.696 145H263Z" fill="url(#paint2_linear_8_222)"/>
<path d="M264 224V301H220.171C198.462 301 181 283.553 181 262.364C181 241.176 198.462 224 220.171 224H264Z" fill="url(#paint3_linear_8_222)"/>
<path d="M222.394 384C199.532 384 181 365.468 181 342.611C181 319.749 198.389 301 221.246 301H264V342.389C264 365.251 245.251 384 222.394 384Z" fill="url(#paint4_linear_8_222)"/>
<path d="M124.419 180.989C124.38 204.92 104.949 224.289 81.0178 224.25V224.25L81.1853 121.333L124.516 121.404L124.419 180.989Z" fill="white" fill-opacity="0.4"/>
<path d="M194.304 78.1843V78.1843C194.265 102.117 174.833 121.486 150.901 121.447L81 121.333L81.0299 103C81.0523 89.1929 92.2634 78.0183 106.071 78.0407L194.304 78.1843Z" fill="white" fill-opacity="0.4"/>
<path d="M134.166 109.5H112.5V146.333" stroke="white" stroke-width="24" stroke-miterlimit="10" stroke-linecap="round" stroke-linejoin="round"/>
<path d="M387.33 319.331C387.33 295.4 406.73 276 430.661 276V276V384.333H387.33V319.331Z" fill="black" fill-opacity="0.4"/>
<path d="M318 427.667V427.667C318 403.734 337.401 384.333 361.333 384.333H430.661V402.667C430.661 416.474 419.468 427.667 405.661 427.667H318Z" fill="black" fill-opacity="0.4"/>
<path d="M377.661 396.337L399.326 396.337L399.326 359.503" stroke="#D6E0E9" stroke-width="24" stroke-miterlimit="10" stroke-linecap="round" stroke-linejoin="round"/>
<defs>
<linearGradient id="paint0_linear_8_222" x1="302.5" y1="301" x2="302.5" y2="224" gradientUnits="userSpaceOnUse">
<stop stop-color="#155CDC"/>
<stop offset="0.486" stop-color="#2383E4"/>
<stop offset="1" stop-color="#2FB3EE"/>
</linearGradient>
<linearGradient id="paint1_linear_8_222" x1="300.502" y1="145" x2="300.502" y2="224" gradientUnits="userSpaceOnUse">
<stop stop-color="#FF8769"/>
<stop offset="0.214" stop-color="#FF887D"/>
<stop offset="0.524" stop-color="#FD8896"/>
<stop offset="0.793" stop-color="#FC89A5"/>
<stop offset="0.989" stop-color="#FC89AA"/>
<stop offset="1" stop-color="#FC89AA"/>
</linearGradient>
<linearGradient id="paint2_linear_8_222" x1="221.993" y1="145" x2="221.993" y2="224" gradientUnits="userSpaceOnUse">
<stop stop-color="#FD6B53"/>
<stop offset="0.007" stop-color="#FD6B53"/>
<stop offset="0.989" stop-color="#F96599"/>
<stop offset="1" stop-color="#F96599"/>
</linearGradient>
<linearGradient id="paint3_linear_8_222" x1="222.495" y1="224" x2="222.495" y2="301" gradientUnits="userSpaceOnUse">
<stop stop-color="#7C9EEA"/>
<stop offset="0.277" stop-color="#798CE6"/>
<stop offset="0.737" stop-color="#7780E3"/>
<stop offset="1" stop-color="#7363DC"/>
</linearGradient>
<linearGradient id="paint4_linear_8_222" x1="222.5" y1="301" x2="222.5" y2="384" gradientUnits="userSpaceOnUse">
<stop stop-color="#00E49F"/>
<stop offset="0.478" stop-color="#00DA9E"/>
<stop offset="1" stop-color="#00CA9B"/>
</linearGradient>
</defs>
</svg>
