<svg width="512" height="512" viewBox="0 0 512 512" fill="none" xmlns="http://www.w3.org/2000/svg">
<path opacity="0.3" d="M256 512C344.366 512 416 501.255 416 488C416 474.745 344.366 464 256 464C167.634 464 96 474.745 96 488C96 501.255 167.634 512 256 512Z" fill="black"/>
<path d="M225.223 63H288.448V355.559C256.051 361.72 232.205 364.184 206.342 364.184C129.213 364.184 89 329.334 89 262.388C89 197.967 131.654 156.123 197.718 156.123C207.973 156.123 215.777 156.944 225.211 159.396L225.223 63ZM225.223 210.288C218.362 207.957 211.126 206.833 203.89 206.954C171.867 206.954 153.433 226.644 153.433 261.192C153.433 294.846 171.046 313.292 203.516 313.292C210.498 313.292 216.224 312.917 225.223 311.661V210.24V210.288ZM389 160.58V307.107C389 357.564 385.352 381.856 374.275 402.742C364.019 422.879 350.429 435.587 322.561 449.551L263.866 421.611C291.734 408.456 305.324 397.017 313.949 379.332C322.948 361.273 325.835 340.326 325.835 285.339V160.58H389ZM325.835 63.3141H389V128.182H325.835V63.3141Z" fill="#00B862" stroke="#203C26" stroke-width="20" stroke-linejoin="round"/>
</svg>
