<svg width="512" height="512" viewBox="0 0 512 512" fill="none" xmlns="http://www.w3.org/2000/svg">
<path opacity="0.3" d="M256 512C344.366 512 416 501.255 416 488C416 474.745 344.366 464 256 464C167.634 464 96 474.745 96 488C96 501.255 167.634 512 256 512Z" fill="black"/>
<path d="M390 190.491V377.509C390 386.722 384.294 394.92 375.7 397.967L312 428L317.778 349.29V218.71L312 140L375.7 170.033C384.294 173.08 390 181.278 390 190.491Z" fill="#29B6F6"/>
<path d="M136.247 355.299L318 218.354V148.44C318 139.758 307.226 135.699 301.46 142.207L104.68 321.548C98.1371 327.564 98.5079 337.978 105.458 343.522C105.458 343.522 115.084 352.451 118.566 354.929C123.917 358.734 130.947 359.169 136.247 355.299Z" fill="#0277BD"/>
<path d="M136.247 212.701L318 349.646V419.56C318 428.242 307.226 432.301 301.46 425.793L104.68 246.452C98.1371 240.436 98.5079 230.022 105.458 224.478C105.458 224.478 115.084 215.549 118.566 213.071C123.917 209.266 130.947 208.831 136.247 212.701Z" fill="#0288D1"/>
</svg>
