<svg width="512" height="512" viewBox="0 0 512 512" fill="none" xmlns="http://www.w3.org/2000/svg">
<path opacity="0.3" d="M256 512C344.366 512 416 501.255 416 488C416 474.745 344.366 464 256 464C167.634 464 96 474.745 96 488C96 501.255 167.634 512 256 512Z" fill="black"/>
<path d="M288 64H224C193.072 64 168 89.072 168 120V128C168 136.84 175.16 144 184 144H240C248.84 144 256 151.16 256 160C256 168.84 248.84 176 240 176H112C85.488 176 64 197.488 64 224V288C64 314.512 85.488 336 112 336H168V296C168 273.912 185.912 256 208 256H304C326.088 256 344 238.088 344 216V120C344 89.072 318.928 64 288 64Z" fill="#37D0EE"/>
<path d="M92 244V224C92 212.968 100.976 204 112 204" stroke="#F2F2F2" stroke-width="4.6875" stroke-miterlimit="10" stroke-linecap="round" stroke-linejoin="round"/>
<path opacity="0.3" d="M184 176H112C85.488 176 64 197.488 64 224V288C64 293.52 64.976 298.792 66.688 303.728C87.504 302.32 104 285.168 104 264V224C104 219.584 107.592 216 112 216H144C166.088 216 184 198.096 184 176Z" fill="white"/>
<path d="M400 176H344V216C344 238.088 326.088 256 304 256H208C185.912 256 168 273.912 168 296V392C168 422.928 193.072 448 224 448H288C318.928 448 344 422.928 344 392V384C344 375.16 336.84 368 328 368H272C263.16 368 256 360.84 256 352C256 343.16 263.16 336 272 336H400C426.512 336 448 314.512 448 288V224C448 197.488 426.512 176 400 176Z" fill="#FFCE29"/>
<path d="M224 120C232.837 120 240 112.837 240 104C240 95.1634 232.837 88 224 88C215.163 88 208 95.1634 208 104C208 112.837 215.163 120 224 120Z" fill="#9C34C2"/>
<path d="M288 424C296.837 424 304 416.837 304 408C304 399.163 296.837 392 288 392C279.163 392 272 399.163 272 408C272 416.837 279.163 424 288 424Z" fill="#9C34C2"/>
<path opacity="0.15" d="M328 336H400C426.512 336 448 314.512 448 288V224C448 218.48 447.024 213.208 445.312 208.272C424.496 209.68 408 226.832 408 248V288C408 292.416 404.408 296 400 296H368C345.912 296 328 313.904 328 336Z" fill="black"/>
</svg>
