<svg width="512" height="512" viewBox="0 0 512 512" fill="none" xmlns="http://www.w3.org/2000/svg">
<path opacity="0.3" d="M256 512C344.366 512 416 501.255 416 488C416 474.745 344.366 464 256 464C167.634 464 96 474.745 96 488C96 501.255 167.634 512 256 512Z" fill="black"/>
<rect x="96.0176" y="93" width="324.982" height="325" rx="25" fill="#57DA8E"/>
<path d="M240.725 153.938V212.146C236.81 210.555 228.359 210.361 224.196 210.361C192.871 210.361 163.874 225.099 163.874 266.785C163.874 316.663 203.149 323.208 229.441 323.208C239.822 323.208 263.293 322.183 274.577 318.91V153.938H240.725ZM297.146 153.938V187.792H330.998V153.938H297.146ZM297.146 210.361V308.551C297.146 325.659 286.742 343.466 263.293 353.69L295.559 368.303C328.35 357.018 330.998 319.836 330.998 308.551V210.361H297.146ZM229.11 239.146C232.721 239.146 236.776 239.808 240.725 240.711V293.784C236.776 294.687 232.721 295.371 229.11 295.371C214.328 295.371 199.997 290.708 199.997 266.785C199.997 242.861 214.328 239.146 229.11 239.146Z" fill="#287456"/>
<path opacity="0.2" d="M377.669 309.664C377.669 285.733 397.069 266.333 421 266.333V374.667H377.669V309.664Z" fill="black"/>
<path opacity="0.2" d="M308.339 418C308.339 394.068 327.74 374.667 351.673 374.667H421V393C421 406.807 409.807 418 396 418H308.339Z" fill="black"/>
<path opacity="0.3" d="M139.419 195.989C139.38 219.92 119.949 239.289 96.0179 239.25L96.1854 136.333L139.516 136.404L139.419 195.989Z" fill="white"/>
<path opacity="0.3" d="M209.304 93.1843C209.265 117.117 189.833 136.486 165.901 136.447L96 136.333L96.0298 118C96.0523 104.193 107.263 93.0183 121.07 93.0407L209.304 93.1843Z" fill="white"/>
<path d="M139.665 117H118V153.833" stroke="white" stroke-width="15" stroke-miterlimit="10" stroke-linecap="round" stroke-linejoin="round"/>
</svg>
