<svg width="512" height="512" viewBox="0 0 512 512" fill="none" xmlns="http://www.w3.org/2000/svg">
<path opacity="0.3" d="M256 512C344.918 512 417 501.255 417 488C417 474.745 344.918 464 256 464C167.082 464 95 474.745 95 488C95 501.255 167.082 512 256 512Z" fill="black"/>
<path d="M384 416H136C118.328 416 104 401.672 104 384V64C104 46.328 118.328 32 136 32H306.488C314.968 32 323.104 35.368 329.104 41.36L406.616 118.8C412.624 124.808 416 132.952 416 141.44V384C416 401.672 401.672 416 384 416Z" fill="#62BDCF"/>
<path opacity="0.3" d="M104 64V208C126.096 208 144 190.096 144 168V77.216C144 73.856 146.112 70.856 149.28 69.744C164.84 64.264 176 49.44 176 32H136C118.328 32 104 46.328 104 64Z" fill="white"/>
<path opacity="0.15" d="M416 384V296C393.904 296 376 313.904 376 336V368C376 372.416 372.416 376 368 376H296C273.904 376 256 393.904 256 416H384C401.672 416 416 401.672 416 384Z" fill="black"/>
<path d="M132 76V132" stroke="white" stroke-width="3" stroke-miterlimit="10" stroke-linecap="round" stroke-linejoin="round"/>
<path d="M406.616 118.808L329.104 41.3681C326.448 38.7121 323.336 36.6721 320 35.1121V96.0001C320 113.672 334.328 128 352 128H412.928C411.36 124.632 409.296 121.48 406.616 118.808Z" fill="#F5D100"/>
<path d="M176.912 296.096C171.84 296.096 166.768 295.544 161.696 294.432C156.624 293.328 152.224 291.704 148.504 289.56C146.288 288.368 144.896 286.776 144.344 284.752C143.792 282.728 143.912 280.768 144.704 278.864C145.496 276.968 146.768 275.624 148.504 274.832C150.248 274.04 152.344 274.232 154.8 275.424C157.976 277.256 161.504 278.6 165.384 279.464C169.264 280.336 173.112 280.768 176.912 280.768C182.616 280.768 186.72 279.88 189.216 278.096C191.712 276.304 192.96 274.072 192.96 271.376C192.96 269.08 192.088 267.256 190.352 265.912C188.6 264.568 185.552 263.416 181.192 262.472L167.768 259.616C152.792 256.44 145.296 248.672 145.296 236.312C145.296 231.008 146.728 226.352 149.584 222.344C152.44 218.352 156.416 215.232 161.528 213.016C166.632 210.8 172.552 209.688 179.296 209.688C183.728 209.688 188.088 210.224 192.368 211.296C196.656 212.36 200.416 213.928 203.664 215.984C205.64 217.176 206.872 218.72 207.352 220.616C207.824 222.52 207.688 224.344 206.936 226.088C206.184 227.832 204.912 229.056 203.136 229.76C201.344 230.472 199.152 230.208 196.536 228.928C193.912 227.584 191.136 226.6 188.208 225.96C185.28 225.328 182.272 225.016 179.176 225.016C174.184 225.016 170.328 225.984 167.584 227.928C164.856 229.872 163.48 232.384 163.48 235.472C163.48 237.776 164.312 239.632 165.984 241.064C167.648 242.488 170.536 243.64 174.664 244.504L188.088 247.36C203.456 250.688 211.152 258.224 211.152 269.944C211.152 275.168 209.736 279.752 206.936 283.672C204.12 287.6 200.152 290.648 195.048 292.824C189.928 295 183.888 296.096 176.912 296.096Z" fill="#F5D100"/>
<path d="M295.24 306.792C296.504 308.856 296.984 310.736 296.664 312.44C296.352 314.144 295.56 315.568 294.296 316.712C293.032 317.864 291.504 318.6 289.72 318.904C287.928 319.224 286.152 319.048 284.368 318.368C282.576 317.688 281.048 316.408 279.792 314.512L271.344 300.72C269.36 297.632 265.96 296.088 261.12 296.088C252.88 296.008 245.672 294.192 239.488 290.624C233.304 287.056 228.488 282.024 225.048 275.528C221.608 269.04 219.872 261.464 219.872 252.824C219.872 244.112 221.6 236.528 225.048 230.064C228.488 223.616 233.312 218.592 239.488 215.032C245.672 211.464 252.912 209.68 261.24 209.68C269.56 209.68 276.824 211.456 283.04 215.032C289.256 218.592 294.096 223.608 297.552 230.064C300.992 236.528 302.72 244.072 302.72 252.712C302.72 261.824 300.824 269.728 297.016 276.432C293.216 283.128 288.024 288.176 281.456 291.576C284.936 292.608 287.944 295.144 290.48 299.192L295.24 306.792ZM261.248 280.4C268.216 280.4 273.672 277.96 277.584 273.088C281.512 268.224 283.464 261.464 283.464 252.824C283.464 244.112 281.528 237.36 277.64 232.56C273.76 227.768 268.296 225.376 261.248 225.376C254.352 225.376 248.944 227.776 245.016 232.56C241.096 237.36 239.136 244.112 239.136 252.824C239.136 261.464 241.096 268.224 245.016 273.088C248.944 277.968 254.352 280.4 261.248 280.4Z" fill="#F5D100"/>
<path d="M327.144 294.784C324.056 294.784 321.72 293.968 320.128 292.344C318.544 290.72 317.752 288.408 317.752 285.392V220.136C317.752 217.128 318.544 214.808 320.128 213.184C321.712 211.56 324.008 210.744 327.024 210.744C333.128 210.744 336.176 213.88 336.176 220.136V279.208H368.032C373.344 279.208 376 281.792 376 286.936C376 292.168 373.336 294.784 368.032 294.784H327.144Z" fill="#F5D100"/>
</svg>
