<svg width="512" height="512" viewBox="0 0 512 512" fill="none" xmlns="http://www.w3.org/2000/svg">
<path opacity="0.3" d="M256 512C344.366 512 416 501.255 416 488C416 474.745 344.366 464 256 464C167.634 464 96 474.745 96 488C96 501.255 167.634 512 256 512Z" fill="black"/>
<path d="M360.667 193.671C332.433 173.062 253.292 106.929 253.292 106.929C244.5 99.4956 231.358 100.596 223.933 109.379C216.492 118.162 217.592 131.304 226.375 138.737L271.592 177.004H114.833C103.325 177.004 94.0001 186.329 94.0001 197.837C94.0001 209.346 103.325 218.671 114.833 218.671H188.058L52.1501 322.979C43.0251 329.987 41.3001 343.062 48.3084 352.187C52.4084 357.537 58.5917 360.337 64.8501 360.337C69.2751 360.337 73.7334 358.937 77.5251 356.029L160.825 292.096C160.8 293.062 160.667 293.987 160.667 294.954C160.667 360.096 215.1 410.337 285.667 410.337C356.233 410.337 416.225 360.096 416.225 294.954C416.225 254.296 392.967 217.254 360.667 193.671Z" fill="url(#paint0_linear_8_255)"/>
<path d="M289.833 360.337C334.707 360.337 371.083 326.759 371.083 285.337C371.083 243.916 334.707 210.337 289.833 210.337C244.96 210.337 208.583 243.916 208.583 285.337C208.583 326.759 244.96 360.337 289.833 360.337Z" fill="white"/>
<path opacity="0.07" d="M289.833 210.337C334.708 210.337 371.083 243.912 371.083 285.337C371.083 326.762 334.708 360.337 289.833 360.337C244.958 360.337 208.583 326.762 208.583 285.337C208.583 243.912 244.958 210.337 289.833 210.337ZM289.833 206.171C242.733 206.171 204.417 241.687 204.417 285.337C204.417 328.987 242.733 364.504 289.833 364.504C336.933 364.504 375.25 328.987 375.25 285.337C375.25 241.687 336.933 206.171 289.833 206.171Z" fill="black"/>
<path opacity="0.05" d="M289.833 206.171C336.933 206.171 375.25 241.687 375.25 285.337C375.25 328.987 336.933 364.504 289.833 364.504C242.733 364.504 204.417 328.987 204.417 285.337C204.417 241.687 242.733 206.171 289.833 206.171ZM289.833 202.004C240.433 202.004 200.25 239.387 200.25 285.337C200.25 331.287 240.433 368.671 289.833 368.671C339.233 368.671 379.417 331.287 379.417 285.337C379.417 239.387 339.233 202.004 289.833 202.004Z" fill="black"/>
<path d="M289.833 327.004C315.146 327.004 335.667 308.349 335.667 285.337C335.667 262.325 315.146 243.67 289.833 243.67C264.52 243.67 244 262.325 244 285.337C244 308.349 264.52 327.004 289.833 327.004Z" fill="#0370C8"/>
<defs>
<linearGradient id="paint0_linear_8_255" x1="44.0001" y1="256.171" x2="416.225" y2="256.171" gradientUnits="userSpaceOnUse">
<stop stop-color="#FFA402"/>
<stop offset="1" stop-color="#FF8800"/>
</linearGradient>
</defs>
</svg>
