<svg width="512" height="512" viewBox="0 0 512 512" fill="none" xmlns="http://www.w3.org/2000/svg">
<path opacity="0.3" d="M256 512C344.366 512 416 501.255 416 488C416 474.745 344.366 464 256 464C167.634 464 96 474.745 96 488C96 501.255 167.634 512 256 512Z" fill="black"/>
<path d="M432 160V352C432 370 426.08 386.56 416 399.92V400C402.48 417.92 381.68 430 358 431.76C356.08 431.92 354 432 352 432H160C115.84 432 80 396.16 80 352V160C80 158 80.08 155.92 80.24 154C82 130.32 94.08 109.52 112 96H112.08C125.44 85.92 142 80 160 80H352C396.16 80 432 115.84 432 160Z" fill="#FFCE29"/>
<path opacity="0.3" d="M112.08 96H112C94.08 109.52 82 130.32 80.24 154C80.08 155.92 80 158 80 160V256C102.088 256 120 238.088 120 216V160C120 159.136 120.024 158.232 120.136 156.96C120.952 145.96 126.36 135.76 135.032 128.76C135.416 128.496 135.792 128.216 136.168 127.936C143.048 122.744 151.288 120 160 120H208C230.088 120 248 102.088 248 80H160C142 80 125.44 85.92 112.08 96Z" fill="white"/>
<path opacity="0.15" d="M432 352V224C409.912 224 392 241.904 392 264V352C392 374.056 374.056 392 352 392H264C241.912 392 224 409.904 224 432H352C396.184 432 432 396.184 432 352Z" fill="black"/>
<path d="M108 188V160C108 158.776 108.04 157.504 108.144 156.328C109.224 141.856 116.168 128.648 127.312 119.576L128.944 118.36" stroke="white" stroke-width="4.6875" stroke-miterlimit="10" stroke-linecap="round" stroke-linejoin="round"/>
<path d="M227.528 380.528C223.904 380.632 221.072 379.68 219.04 377.648C217.016 375.624 216 373.008 216 369.8C216 367.352 216.72 365.208 218.168 363.384C219.6 361.568 221.712 360.568 224.496 360.344L229.136 360.016C237.688 359.496 241.952 354.992 241.952 346.56V277.504C241.952 273.448 243.024 270.32 245.16 268.128C247.296 265.936 250.336 264.84 254.304 264.84C262.624 264.84 266.792 269.064 266.792 277.504V346.248C266.792 367.504 255.576 378.824 233.136 380.216L227.528 380.528Z" fill="#9C34C2"/>
<path d="M329.752 381.008C322.92 381.008 316.072 380.264 309.24 378.768C302.408 377.28 296.472 375.088 291.456 372.2C288.472 370.6 286.592 368.448 285.848 365.72C285.104 362.992 285.264 360.344 286.328 357.776C287.4 355.224 289.104 353.408 291.456 352.336C293.8 351.264 296.632 351.528 299.944 353.128C304.224 355.592 308.984 357.408 314.208 358.576C319.44 359.752 324.624 360.336 329.752 360.336C337.448 360.336 342.976 359.136 346.336 356.736C349.704 354.32 351.384 351.312 351.384 347.672C351.384 344.584 350.208 342.12 347.864 340.304C345.504 338.488 341.4 336.936 335.512 335.664L317.416 331.816C297.232 327.536 287.128 317.072 287.128 300.408C287.128 293.264 289.056 286.976 292.904 281.576C296.752 276.192 302.112 271.992 309.008 269.008C315.896 266.024 323.872 264.52 332.96 264.52C338.936 264.52 344.816 265.24 350.576 266.688C356.352 268.12 361.424 270.232 365.808 273.016C368.472 274.616 370.136 276.704 370.776 279.264C371.416 281.832 371.232 284.288 370.216 286.648C369.2 288.992 367.488 290.648 365.088 291.6C362.672 292.568 359.712 292.2 356.192 290.48C352.656 288.664 348.912 287.336 344.968 286.48C341.016 285.632 336.96 285.2 332.792 285.2C326.064 285.2 320.864 286.504 317.168 289.128C313.488 291.752 311.64 295.136 311.64 299.296C311.64 302.4 312.76 304.904 315.016 306.832C317.256 308.752 321.16 310.304 326.712 311.472L344.808 315.32C365.528 319.808 375.896 329.96 375.896 345.768C375.896 352.808 373.992 358.992 370.208 364.272C366.416 369.568 361.064 373.672 354.184 376.608C347.304 379.536 339.16 381.008 329.752 381.008Z" fill="#9C34C2"/>
</svg>
