<svg width="512" height="512" viewBox="0 0 512 512" fill="none" xmlns="http://www.w3.org/2000/svg">
<path d="M86.5121 90.112L112.648 386.336C113.784 399.2 122.544 410.128 134.856 414.032L229.128 443.904C246.608 449.44 265.376 449.44 282.856 443.904L377.128 414.032C389.44 410.128 398.2 399.208 399.336 386.336L425.472 90.112C426.72 76.08 415.664 64 401.576 64H110.424C96.3361 64 85.2801 76.08 86.5121 90.112Z" fill="#FFA500"/>
<path opacity="0.15" d="M377.136 414.024C389.448 410.12 398.208 399.2 399.344 386.328L410.816 256.288C388.904 254.304 369.4 270.608 367.456 292.616L360.432 372.184C360.152 375.4 357.96 378.128 354.88 379.104L293.248 398.632C273.496 404.888 260.528 424.872 264.728 445.16C264.896 445.968 265.216 446.688 265.424 447.472C271.312 446.848 277.16 445.688 282.864 443.88L377.136 414.024Z" fill="black"/>
<path opacity="0.3" d="M86.5119 90.112L103.968 287.96C110.888 287.328 118.056 284.624 125.496 276.784C136.032 265.68 140.792 250.264 139.448 235.016L128.656 112.712C128.248 108.024 131.936 104 136.632 104H184C206.088 104 223.976 86.088 223.976 64H110.424C96.3359 64 85.2719 76.08 86.5119 90.112Z" fill="white"/>
<path d="M256 120V386.672C256 397.336 266.24 405.016 276.48 402.032L350.112 380.576C356.456 378.728 361.016 373.16 361.576 366.576L382.52 121.36C383.32 112.024 375.952 104 366.576 104H272C263.16 104 256 111.16 256 120Z" fill="#FFCE29"/>
<path d="M256 264V224H335.424C340.064 224 343.728 227.928 343.408 232.552L336.208 336.44C335.984 339.68 333.824 342.464 330.736 343.48L256 368.168V325.568L297.432 311.368L300.464 264.184L256 264ZM346.496 176.6L348.312 152.608C348.672 147.96 344.992 144 340.336 144H256L255.888 183.888L338.512 183.992C342.696 184 346.184 180.776 346.496 176.6Z" fill="white"/>
<path d="M256 325.728V368.168L181.248 343.568C178.176 342.56 176.016 339.792 175.768 336.568L172.768 296.648C172.416 292.008 176.088 288.048 180.744 288.048H205.2C209.352 288.048 212.816 291.224 213.168 295.36L214.56 311.576L256 325.728ZM206.488 183.928H256V144.072H172.528C167.928 144.072 164.272 147.944 164.544 152.544L170.672 256.552C170.92 260.784 174.424 264.08 178.656 264.08H256V224.032H209.512L206.488 183.928Z" fill="#EEEEEE"/>
<path opacity="0.3" d="M256 512C344.366 512 416 501.255 416 488C416 474.745 344.366 464 256 464C167.634 464 96 474.745 96 488C96 501.255 167.634 512 256 512Z" fill="black"/>
<path d="M118.856 138.048L114.792 92H152.536" stroke="white" stroke-width="4.6875" stroke-miterlimit="10" stroke-linecap="round" stroke-linejoin="round"/>
</svg>
