<svg width="512" height="512" viewBox="0 0 512 512" fill="none" xmlns="http://www.w3.org/2000/svg">
<path opacity="0.3" d="M256 512C344.366 512 416 501.255 416 488C416 474.745 344.366 464 256 464C167.634 464 96 474.745 96 488C96 501.255 167.634 512 256 512Z" fill="black"/>
<path d="M432 160V352C432 370 426.08 386.56 416 399.92V400C402.48 417.92 381.68 430 358 431.76C356.08 431.92 354 432 352 432H160C115.84 432 80 396.16 80 352V160C80 158 80.08 155.92 80.24 154C82 130.32 94.08 109.52 112 96H112.08C125.44 85.92 142 80 160 80H352C396.16 80 432 115.84 432 160Z" fill="#FFCE29"/>
<path opacity="0.3" d="M112.08 96H112C94.08 109.52 82 130.32 80.24 154C80.08 155.92 80 158 80 160V256C102.088 256 120 238.088 120 216V160C120 159.136 120.024 158.232 120.136 156.96C120.952 145.96 126.36 135.76 135.032 128.76C135.416 128.496 135.792 128.216 136.168 127.936C143.048 122.744 151.288 120 160 120H208C230.088 120 248 102.088 248 80H160C142 80 125.44 85.92 112.08 96Z" fill="white"/>
<path opacity="0.15" d="M432 352V224C409.912 224 392 241.904 392 264V352C392 374.056 374.056 392 352 392H264C241.912 392 224 409.904 224 432H352C396.184 432 432 396.184 432 352Z" fill="black"/>
<path d="M108 188V160C108 158.776 108.04 157.504 108.144 156.328C109.224 141.856 116.168 128.648 127.312 119.576L128.944 118.36" stroke="white" stroke-width="4.6875" stroke-miterlimit="10" stroke-linecap="round" stroke-linejoin="round"/>
<path d="M234.815 365.547C231.415 365.645 228.758 364.746 226.852 362.827C224.953 360.916 224 358.446 224 355.416C224 353.105 224.675 351.08 226.034 349.358C227.377 347.643 229.358 346.698 231.97 346.487L236.323 346.177C244.346 345.686 248.346 341.433 248.346 333.471V268.261C248.346 264.431 249.351 261.477 251.355 259.407C253.359 257.337 256.211 256.302 259.933 256.302C267.738 256.302 271.648 260.291 271.648 268.261V333.176C271.648 353.248 261.127 363.938 240.075 365.252L234.815 365.547Z" fill="black"/>
<path d="M330.712 366C324.303 366 317.878 365.297 311.469 363.885C305.06 362.48 299.492 360.41 294.786 357.683C291.987 356.172 290.223 354.14 289.525 351.563C288.827 348.987 288.977 346.487 289.975 344.062C290.981 341.652 292.58 339.937 294.786 338.925C296.985 337.913 299.642 338.162 302.749 339.673C306.764 342 311.229 343.714 316.13 344.817C321.038 345.928 325.901 346.479 330.712 346.479C337.932 346.479 343.117 345.346 346.269 343.08C349.429 340.798 351.005 337.958 351.005 334.521C351.005 331.605 349.902 329.278 347.703 327.563C345.489 325.848 341.639 324.383 336.115 323.182L319.139 319.548C300.204 315.506 290.726 305.625 290.726 289.889C290.726 283.143 292.535 277.205 296.144 272.106C299.754 267.022 304.782 263.056 311.252 260.238C317.713 257.42 325.196 256 333.721 256C339.327 256 344.844 256.68 350.247 258.047C355.666 259.399 360.424 261.394 364.536 264.023C367.035 265.534 368.596 267.505 369.197 269.923C369.797 272.348 369.625 274.667 368.672 276.896C367.718 279.109 366.112 280.673 363.861 281.572C361.594 282.486 358.818 282.138 355.515 280.514C352.198 278.799 348.686 277.545 344.986 276.737C341.279 275.936 337.474 275.528 333.564 275.528C327.252 275.528 322.374 276.76 318.907 279.237C315.454 281.715 313.721 284.911 313.721 288.839C313.721 291.77 314.771 294.135 316.888 295.955C318.989 297.768 322.652 299.234 327.86 300.337L344.836 303.971C364.274 308.209 374 317.795 374 332.723C374 339.371 372.214 345.21 368.664 350.196C365.107 355.197 360.086 359.073 353.632 361.845C347.178 364.61 339.538 366 330.712 366Z" fill="black"/>
</svg>
