<svg width="512" height="512" viewBox="0 0 512 512" fill="none" xmlns="http://www.w3.org/2000/svg">
<path opacity="0.3" d="M256 512C344.366 512 416 501.255 416 488C416 474.745 344.366 464 256 464C167.634 464 96 474.745 96 488C96 501.255 167.634 512 256 512Z" fill="black"/>
<path d="M419.521 215.462C423.071 199.713 418.685 181.151 396.821 161C361.282 193.16 371.442 226.599 383.201 242.692C383.201 242.692 381.694 251.769 346.881 251.769C312.069 251.769 74.4839 251.769 74.4839 251.769C74.4839 251.769 57.8405 397 219.763 397C361.346 397 401.116 288.05 408.879 260.156C412.093 260.592 415.698 260.873 419.521 260.846C439.015 260.692 464.284 250.217 474 211.068C448.231 202.146 431.679 206.185 419.521 215.462Z" fill="#03A9F4"/>
<path d="M76 288C82.6843 331.046 110.722 397 220.007 397C330.821 397 379.366 330.419 399 288H76Z" fill="#0288D1"/>
<path d="M237 396.433C228.631 393.489 190.864 386.467 184.133 333C145.847 350.033 111.927 345.571 97 342.216C116.666 371.738 153.124 397 220.518 397C226.185 397 231.651 396.781 237 396.433Z" fill="#81D4FA"/>
<path d="M220 307C214.961 307 210.128 308.844 206.565 312.126C203.002 315.408 201 319.859 201 324.5C201 329.141 203.002 333.592 206.565 336.874C210.128 340.156 214.961 342 220 342C225.039 342 229.872 340.156 233.435 336.874C236.998 333.592 239 329.141 239 324.5C239 319.859 236.998 315.408 233.435 312.126C229.872 308.844 225.039 307 220 307Z" fill="white"/>
<path d="M191.4 339.015C193.436 343.603 191.582 349.572 186.764 350.989C156.755 359.828 130.891 361 111.336 361C105.482 355.377 100.482 349.381 96.2818 343.167C119.782 343.167 157.282 342.077 179.409 334.391C184.155 332.738 189.364 334.41 191.4 339.015ZM74 279.085C74 279.085 91.0455 280.22 101.273 270C118.318 285.335 155.273 279.884 164.909 270C174.573 285.335 227.982 282.491 237.636 270C249 283.064 297.864 285.898 310.364 270C314.718 283.273 372.355 287.024 383.091 270C392.736 279.884 429.118 287.606 449.555 270C454.682 280.792 474 279.085 474 279.085V288.169H74M210.364 324.507C210.364 329.522 214.436 333.592 219.455 333.592C224.473 333.592 228.545 329.522 228.545 324.507C228.545 319.493 224.473 315.423 219.455 315.423C214.436 315.423 210.364 319.493 210.364 324.507Z" fill="#37474F"/>
<path d="M156.4 251H111V206H156.4V251ZM247.2 206H201.8V251H247.2V206ZM338 206H292.6V251H338V206ZM201.8 161H156.4V206H201.8V161ZM292.6 161H247.2V206H292.6V161Z" fill="#01579B"/>
<path d="M201.667 251H156V205.667H201.667V251ZM293 205.667H247.333V251H293V205.667ZM293 115H247.333V160.333H293V115ZM247.333 160.333H201.667V205.667H247.333V160.333Z" fill="#0288D1"/>
</svg>
