<svg width="512" height="512" viewBox="0 0 512 512" fill="none" xmlns="http://www.w3.org/2000/svg">
<path opacity="0.3" d="M256 512C344.366 512 416 501.255 416 488C416 474.745 344.366 464 256 464C167.634 464 96 474.745 96 488C96 501.255 167.634 512 256 512Z" fill="black"/>
<ellipse cx="256" cy="255.489" rx="80" ry="200" transform="rotate(-90 256 255.489)" stroke="#12495B" stroke-width="15"/>
<path d="M256 190.489C309.809 190.489 357.833 199.24 391.85 212.847C408.901 219.667 421.693 227.413 429.976 235.247C438.228 243.051 441 249.896 441 255.489C441 261.081 438.228 267.926 429.976 275.73C421.693 283.564 408.901 291.31 391.85 298.13C357.833 311.737 309.809 320.489 256 320.489C202.191 320.489 154.167 311.737 120.15 298.13C103.099 291.31 90.3073 283.564 82.0236 275.73C73.7716 267.926 71 261.081 71 255.489C71 249.896 73.7716 243.051 82.0236 235.247C90.3073 227.413 103.099 219.667 120.15 212.847C154.167 199.24 202.191 190.489 256 190.489Z" stroke="#12495B" stroke-width="30"/>
<ellipse cx="256.247" cy="257.205" rx="80" ry="200" transform="rotate(30 256.247 257.205)" stroke="#12495B" stroke-width="15"/>
<path d="M312.539 289.705C285.635 336.305 254.044 373.519 225.251 396.176C210.819 407.532 197.715 414.737 186.789 417.994C175.904 421.238 168.59 420.216 163.747 417.42C158.904 414.624 154.362 408.801 151.73 397.752C149.087 386.662 148.775 371.711 151.394 353.534C156.618 317.27 173.051 271.305 199.956 224.705C226.86 178.105 258.451 140.891 287.244 118.234C301.676 106.878 314.78 99.6734 325.706 96.4165C336.591 93.172 343.904 94.1943 348.747 96.9904C353.59 99.7865 358.133 105.609 360.765 116.658C363.408 127.749 363.72 142.699 361.101 160.876C355.876 197.14 339.443 243.105 312.539 289.705Z" stroke="#12495B" stroke-width="30"/>
<path d="M312.539 222.705C339.443 269.305 355.876 315.27 361.101 351.534C363.72 369.711 363.408 384.662 360.765 395.752C358.133 406.801 353.59 412.624 348.747 415.42C343.905 418.216 336.591 419.238 325.706 415.994C314.78 412.737 301.676 405.532 287.244 394.176C258.451 371.519 226.86 334.305 199.956 287.705C173.051 241.105 156.619 195.14 151.394 158.876C148.775 140.699 149.087 125.749 151.73 114.658C154.362 103.609 158.905 97.7865 163.747 94.9904C168.59 92.1943 175.904 91.172 186.789 94.4165C197.715 97.6734 210.819 104.878 225.251 116.234C254.044 138.891 285.635 176.105 312.539 222.705Z" stroke="#12495B" stroke-width="30" stroke-linecap="square"/>
<ellipse cx="256.247" cy="255.205" rx="80" ry="200" transform="rotate(-30 256.247 255.205)" stroke="#12495B" stroke-width="15" stroke-linecap="square"/>
<path d="M256 185.489C310.282 185.489 358.965 194.308 393.707 208.205C411.107 215.164 424.516 223.201 433.412 231.614C442.287 240.007 446 248.078 446 255.489C446 262.899 442.287 270.97 433.412 279.363C424.516 287.776 411.107 295.813 393.707 302.772C358.965 316.669 310.282 325.489 256 325.489C201.718 325.489 153.035 316.669 118.293 302.772C100.893 295.813 87.484 287.776 78.5881 279.363C69.7132 270.97 66 262.899 66 255.489C66 248.078 69.7132 240.007 78.5881 231.614C87.484 223.201 100.893 215.164 118.293 208.205C153.035 194.308 201.718 185.489 256 185.489Z" stroke="#47C6F2" stroke-width="20"/>
<path d="M316.869 292.205C289.728 339.215 257.749 376.965 228.343 400.105C213.616 411.693 199.951 419.288 188.217 422.785C176.511 426.275 167.665 425.455 161.247 421.75C154.83 418.045 149.697 410.794 146.866 398.911C144.028 387.001 143.772 371.369 146.445 352.821C151.781 315.785 168.485 269.215 195.626 222.205C222.767 175.196 254.745 137.445 284.152 114.305C298.879 102.717 312.544 95.1225 324.278 91.6248C335.984 88.1355 344.83 88.9552 351.247 92.6603C357.665 96.3653 362.798 103.617 365.629 115.499C368.467 127.409 368.722 143.041 366.05 161.589C360.714 198.626 344.01 245.196 316.869 292.205Z" stroke="#47C6F2" stroke-width="20"/>
<path d="M316.869 220.205C344.01 267.215 360.714 313.785 366.05 350.821C368.722 369.369 368.467 385.001 365.629 396.911C362.798 408.794 357.665 416.045 351.247 419.75C344.83 423.455 335.984 424.275 324.278 420.785C312.544 417.288 298.879 409.693 284.152 398.105C254.745 374.965 222.767 337.215 195.626 290.205C168.485 243.196 151.781 196.626 146.445 159.589C143.772 141.041 144.028 125.409 146.866 113.499C149.697 101.617 154.83 94.3653 161.247 90.6603C167.665 86.9552 176.511 86.1355 188.217 89.6248C199.951 93.1225 213.616 100.717 228.343 112.305C257.749 135.445 289.728 173.196 316.869 220.205Z" stroke="#47C6F2" stroke-width="20"/>
<circle cx="256" cy="257.489" r="25" fill="#47C6F2" stroke="#134453" stroke-width="10"/>
</svg>
