<svg width="512" height="512" viewBox="0 0 512 512" fill="none" xmlns="http://www.w3.org/2000/svg">
<path opacity="0.3" d="M256 512C344.366 512 416 501.255 416 488C416 474.745 344.366 464 256 464C167.634 464 96 474.745 96 488C96 501.255 167.634 512 256 512Z" fill="black"/>
<path d="M401 162.491V349.509C401 358.722 395.294 366.92 386.7 369.967L323 400L328.778 321.29V190.71L323 112L386.7 142.033C395.294 145.08 401 153.278 401 162.491Z" fill="#29B6F6"/>
<path d="M147.247 327.299L329 190.354V120.44C329 111.758 318.226 107.699 312.46 114.207L115.68 293.548C109.137 299.564 109.508 309.978 116.458 315.522C116.458 315.522 126.084 324.451 129.566 326.929C134.917 330.734 141.947 331.169 147.247 327.299Z" fill="#0277BD"/>
<path d="M147.247 184.701L329 321.646V391.56C329 400.242 318.226 404.301 312.46 397.793L115.68 218.452C109.137 212.436 109.508 202.022 116.458 196.478C116.458 196.478 126.084 187.549 129.566 185.071C134.917 181.266 141.947 180.831 147.247 184.701Z" fill="#0288D1"/>
</svg>
